<?xml version="1.0" encoding="UTF-8"?>
<!-- Generator: Adobe Illustrator 19.1.0, SVG Export Plug-In . SVG Version: 6.00 Build 0)  -->
<svg xmlns="http://www.w3.org/2000/svg" xmlns:xlink="http://www.w3.org/1999/xlink" xmlns:dc="http://purl.org/dc/elements/1.1/" xmlns:cc="http://creativecommons.org/ns#" xmlns:rdf="http://www.w3.org/1999/02/22-rdf-syntax-ns#" version="1.1" id="DESIGNS" x="0px" y="0px" width="32px" height="32px" viewBox="0 0 32 32" style="enable-background:new 0 0 32 32;" xml:space="preserve">
<title property="dc:title">to call</title><desc property="dc:description">An icon for "call" from the Sharp Corners series on to [icon]. Downloaded from http://www.toicon.com/icons/sharp-corners_call by 201.42.58.138 on 2016-01-25. Licensed CC-BY, see http://toicon.com/license/ for details.</desc>
<path class="sharpcorners_een" d="M21,11v-1h-2v1h-6v-1h-2v1h-1L6,22v6h1v1h2v-1h14v1h2v-1h1v-6l-4-11H21z M16,25  c-3.314,0-6-2.686-6-6s2.686-6,6-6s6,2.686,6,6S19.314,25,16,25z M16,14c-2.757,0-5,2.243-5,5s2.243,5,5,5s5-2.243,5-5  S18.757,14,16,14z M16,22c-1.657,0-3-1.343-3-3s1.343-3,3-3s3,1.343,3,3S17.657,22,16,22z M8,12l-7,1v-1l7-1V12z M8,10l-7,1  c0-2,1-4,2-5s6-3,13-3s12,2,13,3s2,3,2,5l-7-1c-1-2-4-2-8-2C12,8,9,8,8,10z M24,11l7,1v1l-7-1V11z" style="fill: #111918;"/>
<metadata><work rdf:about=""><format>image/svg+xml</format><type rdf:resource="http://purl.org/dc/dcmitype/StillImage"/><license rdf:resource="http://creativecommons.org/licenses/by/4.0/"/><attributionname>Shannon E Thomas</attributionname><attributionurl>http://www.toicon.com/icons/sharp-corners_call</attributionurl></work></metadata></svg>
